<?xml version="1.0" encoding="UTF-8"?>
<svg xmlns="http://www.w3.org/2000/svg" xmlns:xlink="http://www.w3.org/1999/xlink" viewBox="0 0 25 25" width="25px" height="25px">
<g id="surface54672711">
<path style=" stroke:none;fill-rule:nonzero;fill:rgb(100%,100%,100%);fill-opacity:1;" d="M 11.394531 2.445312 C 11.1875 2.441406 11 2.601562 11 2.832031 L 11 4.140625 C 7.027344 4.851562 4 8.324219 4 12.5 C 4 17.1875 7.8125 21 12.5 21 C 17.1875 21 21 17.1875 21 12.5 C 21 9.199219 19.0625 6.167969 16.0625 4.78125 C 15.9375 4.722656 15.789062 4.777344 15.730469 4.902344 C 15.675781 5.027344 15.726562 5.175781 15.851562 5.234375 C 18.675781 6.539062 20.5 9.390625 20.5 12.5 C 20.5 16.910156 16.910156 20.5 12.5 20.5 C 8.089844 20.5 4.5 16.910156 4.5 12.5 C 4.5 8.601562 7.304688 5.351562 11 4.648438 L 11 5.667969 C 11 5.972656 11.335938 6.15625 11.59375 5.996094 L 13.804688 4.605469 C 14.066406 4.441406 14.066406 4.058594 13.804688 3.894531 L 11.59375 2.503906 C 11.53125 2.464844 11.460938 2.445312 11.390625 2.445312 Z M 11.394531 2.445312 "/>
</g>
</svg>
